<?xml version="1.0" encoding="utf-8"?>
<svg xmlns="http://www.w3.org/2000/svg" viewBox="0 0 227.3287 150.9601" width="227.329px" height="150.96px" preserveAspectRatio="none">
    <path fill="#002b64"
          d="M222.34.004c-3.513.112-2.401 1.125-9.993 2.993c-7.666 1.886-17.03 1.308-25.285 4.77c-24.643 10.335-29.588 45.658-51.99 58.311c-16.746 9.459-33.64 10.213-48.83 14.973c-9.982 3.13-20.902 9.55-29.946 17.343c-7.02 6.052-7.203 11.373-14.538 18.963c-7.846 8.119-31.182.137-41.758 12.563c3.407 3.445 4.9 4.41 11.615 3.516c-1.39 2.635-9.584 4.855-7.98 8.73c1.687 4.08 21.497 6.844 39.506-4.029c8.386-5.063 15.066-12.361 28.128-14.103c16.902-2.253 36.374 1.445 55.94 4.266c-2.9 8.651-8.726 14.404-13.392 21.294c-1.445 1.556 2.903 1.73 7.862.79c8.921-2.206 15.35-3.982 22.084-7.901c8.272-4.815 9.525-17.16 19.674-19.832c5.655 8.691 21.034 10.744 30.578 3.792c-8.374-2.37-10.689-20.194-7.862-28.049c2.678-7.435 5.323-19.328 8.02-29.155c2.895-10.555 3.963-23.859 7.467-29.235c5.27-8.089 11.095-10.867 16.152-15.428s9.685-9.001 9.533-19.439c-.048-3.361-1.787-5.235-4.984-5.133"
          transform="matrix(1, 0, 0, 1, 0, -3.552713678800501e-15)"/>
    <path fill="#c49a6c"
          d="M215.447 6.206c.845 2.879 2.166 4.2 7.877 4.728c-.834 7.241-5.665 11.202-11.08 15.002c-4.766 3.343-9.988 6.561-13.343 11.783c-3.437 5.348-5.62 23.654-10.949 41.732c-4.607 15.62-11.564 31.065-23.713 37.832c-1.269-3.194.162-9.09-2.362-11.028c-1.634 4.658-3.48 9.103-5.644 13.234c-7.128 13.626-17.683 23.828-35.321 26.943c8.369-11.325 16.371-23.02 16.544-42.539c-5.89 1.274-5.765 15.187-11.816 18.906c-3.88.422-7.81.42-11.766.182c-16.245-.973-32.91-5.856-48.107-.98c-10.347 3.321-18.81 11.156-27.572 14.956c-10.298 4.466-18.097 6.303-30.92 4.466c-1.63-2.193 9.385-5.024 8.726-9.786c-5.019-.555-7.933.661-12.296-1.321c.482-.887 1.19-1.627 2.081-2.243c7.996-5.534 30.709-1.307 36.787-7.275c3.752-3.681 6.214-7.535 8.762-11.28c2.472-3.635 5.027-7.169 8.92-10.353c1.437-1.176 3-2.338 4.658-3.472c6.633-4.54 14.839-8.657 22.915-11.495c11-3.867 22.148-4.186 33.874-8.666c7.244-2.769 15.12-6.188 21.542-10.973a43 43 0 0 0 4.3-3.65c18.335-17.873 21.97-49.401 50.575-52.339c3.459-.355 6.29-.24 8.868-.319c2.97-.088 5.6-.433 8.46-2.045m-34.872 100.907c.342 5.464 3.513 16.304 6.314 18.939c-5.484 1.334-14.932-.87-17.355-4.738c1.245-5.586 7.725-10.692 11.041-14.201"
          transform="matrix(1, 0, 0, 1, 0, -3.552713678800501e-15)"/>
    <path fill="#002b64"
          d="M216.84 12.225c-1.077 2.26-3.139 5.172-3.139 10.923c-.009.987-.75 1.663-.762.141c.055-5.62 1.543-8.05 3.124-11.243c.734-1.309 1.177-.77.777.179m-1.085-.85c-1.27 2.155-4.33 6.086-4.835 11.816c-.094.982-.893 1.59-.771.072c.55-5.593 2.996-9.094 4.852-12.137c.842-1.237 1.237-.66.754.248m-.988-1.128c-1.448 2.04-6.157 6.762-7.142 12.43c-.177.969-1.024 1.51-.775.007c1.02-5.529 5.079-9.874 7.184-12.747c.943-1.164 1.288-.556.733.31m-.883-1.258l-.476.506c-2.105 2.258-6.997 7.764-8.627 12.803c-.314.936-1.228 1.353-.769-.101c1.785-5.33 6.702-11.07 9.19-13.62c1.098-1.02 1.354-.368.682.412m-25.275 11.41c1.091-4.686 4.736-6.821 11.028-6.3c1.518 6.994-6.979 9.816-11.028 6.3"
          transform="matrix(1, 0, 0, 1, 0, -3.552713678800501e-15)"/>
</svg>
