<svg width="581" height="115" viewBox="0 0 581 115" fill="none" xmlns="http://www.w3.org/2000/svg">
<path d="M104.554 6.06512C105.723 4.89121 107.619 4.89122 108.788 6.06513L157.883 55.356C159.052 56.5299 159.052 58.4332 157.883 59.6071L108.784 108.902C107.615 110.076 105.719 110.076 104.55 108.902L55.4553 59.6114C54.2861 58.4375 54.2861 56.5342 55.4553 55.3603L104.554 6.06512Z" fill="#2A004E"/>
<path d="M36.5814 59.6262C35.4154 58.4556 35.4153 56.5625 36.5814 55.3918L77.6636 14.1471C79.0436 12.7616 78.7501 10.4445 77.0016 9.56884C69.8697 5.99732 61.8462 3.95776 53.3319 3.95776C23.8818 3.95776 0 27.935 0 57.509C0 87.083 23.8818 111.06 53.3319 111.06C61.8445 111.06 69.8693 109.019 77.0015 105.447C78.7501 104.572 79.0436 102.254 77.6634 100.869L36.5814 59.6262Z" fill="#F14A00"/>
<path d="M214.872 86C214.104 86 213.72 85.616 213.72 84.848V34.736H198.36C197.592 34.736 197.208 34.352 197.208 33.584V24.272C197.208 23.504 197.592 23.12 198.36 23.12H242.328C243.096 23.12 243.48 23.504 243.48 24.272V33.584C243.48 34.352 243.096 34.736 242.328 34.736H227.064V84.848C227.064 85.616 226.648 86 225.816 86H214.872ZM256.525 103.76C256.077 103.76 255.757 103.6 255.565 103.28C255.437 103.024 255.437 102.736 255.565 102.416L261.421 85.808L245.005 39.92C244.685 38.96 245.005 38.48 245.965 38.48H257.485C258.253 38.48 258.701 38.832 258.829 39.536L264.205 57.2C264.781 59.184 265.325 61.328 265.837 63.632C266.413 65.936 266.925 68.24 267.373 70.544H267.661C268.173 68.24 268.685 65.968 269.197 63.728C269.773 61.424 270.317 59.248 270.829 57.2L276.301 39.536C276.429 38.832 276.877 38.48 277.645 38.48H288.973C289.933 38.48 290.253 38.96 289.933 39.92L268.141 102.8C267.885 103.44 267.437 103.76 266.797 103.76H256.525ZM321.039 87.056C319.055 87.056 316.815 86.768 314.319 86.192C311.823 85.616 309.679 84.816 307.887 83.792L307.695 73.904C309.231 74.736 310.799 75.376 312.399 75.824C313.999 76.208 315.471 76.4 316.815 76.4C319.247 76.4 321.039 75.664 322.191 74.192C323.343 72.656 323.919 70.416 323.919 67.472V55.856C323.919 53.424 323.503 51.632 322.671 50.48C321.839 49.264 320.431 48.656 318.447 48.656C316.719 48.656 314.959 49.2 313.167 50.288C311.375 51.376 309.519 52.88 307.599 54.8L306.543 46.448C308.207 44.784 309.903 43.28 311.631 41.936C313.359 40.592 315.215 39.504 317.199 38.672C319.247 37.84 321.487 37.424 323.919 37.424C328.271 37.424 331.503 38.704 333.615 41.264C335.791 43.824 336.879 47.824 336.879 53.264V68.432C336.879 74.832 335.535 79.536 332.847 82.544C330.159 85.552 326.223 87.056 321.039 87.056ZM297.615 103.76C296.847 103.76 296.463 103.376 296.463 102.608V50.384C296.463 48.528 296.399 46.704 296.271 44.912C296.207 43.12 296.111 41.424 295.983 39.824C295.855 38.928 296.239 38.48 297.135 38.48H306.351C307.055 38.48 307.471 38.832 307.599 39.536C307.727 40.496 307.887 41.68 308.079 43.088C308.271 44.432 308.367 45.616 308.367 46.64L309.423 51.728V102.608C309.423 103.376 309.039 103.76 308.271 103.76H297.615ZM366.02 87.056C358.916 87.056 353.668 85.52 350.276 82.448C346.884 79.376 345.188 74.768 345.188 68.624V56.912C345.188 50.576 346.884 45.744 350.276 42.416C353.732 39.088 358.884 37.424 365.732 37.424C372.58 37.424 377.732 39.024 381.188 42.224C384.708 45.424 386.468 50.16 386.468 56.432V64.016C386.468 64.784 386.052 65.168 385.22 65.168H357.956V68.816C357.956 71.632 358.564 73.744 359.78 75.152C361.06 76.496 363.108 77.168 365.924 77.168C368.164 77.168 369.892 76.784 371.108 76.016C372.324 75.184 372.932 74 372.932 72.464C372.932 71.76 373.348 71.408 374.18 71.408H384.356C385.06 71.408 385.444 71.76 385.508 72.464C385.572 77.328 383.972 80.976 380.708 83.408C377.508 85.84 372.612 87.056 366.02 87.056ZM357.956 57.488H373.7V56.24C373.7 53.168 373.06 50.928 371.78 49.52C370.564 48.112 368.612 47.408 365.924 47.408C363.172 47.408 361.156 48.112 359.876 49.52C358.596 50.928 357.956 53.168 357.956 56.24V57.488ZM420.519 87.056C412.199 87.056 405.895 85.04 401.607 81.008C397.383 76.912 395.271 70.992 395.271 63.248V45.968C395.271 38.16 397.383 32.24 401.607 28.208C405.895 24.112 412.199 22.064 420.519 22.064C428.775 22.064 435.015 24.112 439.239 28.208C443.527 32.24 445.671 38.16 445.671 45.968V63.248C445.671 70.992 443.527 76.912 439.239 81.008C435.015 85.04 428.775 87.056 420.519 87.056ZM420.519 75.344C424.487 75.344 427.463 74.256 429.447 72.08C431.431 69.904 432.423 66.672 432.423 62.384V46.736C432.423 42.384 431.431 39.152 429.447 37.04C427.463 34.864 424.487 33.776 420.519 33.776C416.551 33.776 413.575 34.864 411.591 37.04C409.607 39.152 408.615 42.384 408.615 46.736V62.384C408.615 66.672 409.607 69.904 411.591 72.08C413.575 74.256 416.551 75.344 420.519 75.344ZM457.763 86C456.931 86 456.515 85.616 456.515 84.848V24.272C456.515 23.504 456.931 23.12 457.763 23.12H477.923C486.179 23.12 492.195 24.752 495.971 28.016C499.747 31.28 501.635 36.112 501.635 42.512C501.635 46.864 500.739 50.544 498.947 53.552C497.155 56.56 494.339 58.64 490.499 59.792L490.403 59.984L504.899 84.56C505.155 84.944 505.187 85.296 504.995 85.616C504.867 85.872 504.579 86 504.131 86H491.747C491.171 86 490.723 85.744 490.403 85.232L477.347 61.808H469.859V84.848C469.859 85.616 469.475 86 468.707 86H457.763ZM469.859 51.344H477.731C481.379 51.344 484.035 50.672 485.699 49.328C487.427 47.92 488.291 45.744 488.291 42.8C488.291 39.856 487.491 37.744 485.891 36.464C484.291 35.12 481.699 34.448 478.115 34.448H469.859V51.344ZM513.329 86C512.497 86 512.081 85.616 512.081 84.848L513.329 24.272C513.329 23.504 513.713 23.12 514.481 23.12H527.729C528.369 23.12 528.817 23.408 529.073 23.984L543.857 57.2L558.545 23.984C558.801 23.408 559.249 23.12 559.889 23.12H573.233C573.937 23.12 574.289 23.504 574.289 24.272L575.633 84.848C575.633 85.616 575.249 86 574.481 86H563.729C562.897 86 562.481 85.616 562.481 84.848L562.001 58.544C561.937 55.792 561.937 53.04 562.001 50.288C562.129 47.536 562.257 44.912 562.385 42.416H562.097C561.137 44.784 560.081 47.248 558.929 49.808C557.841 52.304 556.721 54.736 555.569 57.104L545.393 78.608C545.137 79.12 544.689 79.376 544.049 79.376H543.569C542.993 79.376 542.577 79.12 542.321 78.608L532.049 57.008C530.897 54.704 529.777 52.304 528.689 49.808C527.665 47.248 526.641 44.784 525.617 42.416H525.329C525.457 44.912 525.585 47.536 525.713 50.288C525.841 53.04 525.873 55.76 525.809 58.448L525.233 84.848C525.233 85.616 524.817 86 523.985 86H513.329Z" fill="black"/>
</svg>
